<svg width="185" height="46" viewBox="0 0 185 46" fill="none" xmlns="http://www.w3.org/2000/svg">
<g id="Group">
<path id="Vector" d="M75.102 17.3091C80.6102 17.3091 81.8432 20.5401 81.8432 24.2688V27.9826H72.2446V28.8739C72.2815 30.9387 73.0199 31.7558 75.6336 31.7558C77.4166 31.7468 79.1882 31.4714 80.8907 30.9387L81.5627 34.2069C79.5359 34.9419 77.3967 35.3139 75.2423 35.3063C69.8449 35.3063 67.9695 32.7882 67.9695 28.6213V24.0534C67.9695 20.399 69.5939 17.3091 75.102 17.3091ZM111.296 17.3017C116.694 17.3017 118.289 19.218 118.289 23.5483L118.274 34.9496H114.744L114.427 33.7761C112.904 34.773 111.127 35.3045 109.31 35.3062C106.172 35.3062 104.828 33.1373 104.828 30.1588C104.828 26.6456 106.349 25.2938 109.842 25.2938H113.969V23.4814C113.969 21.5651 113.438 20.8892 110.683 20.8892C109.081 20.907 107.486 21.0868 105.921 21.424L105.389 18.1187C107.314 17.5839 109.3 17.3091 111.296 17.3017ZM139.908 17.3017C145.8 17.3017 147.387 20.5698 147.387 24.1202V28.4876C147.395 32.038 145.8 35.3062 139.908 35.3062C134.001 35.3062 132.428 32.038 132.428 28.4876V24.1202C132.428 20.5698 134.016 17.3017 139.908 17.3017ZM71.5801 11.3002V15.2442H65.0087V34.9496H60.5785L60.5638 15.2442H53.9998V11.3002H71.5801ZM128.264 9.88142C129.511 9.87722 130.753 10.0447 131.956 10.3792L131.505 13.7141C130.692 13.5382 129.863 13.4436 129.032 13.4319C127.341 13.4319 127.09 14.1747 127.09 15.4893V17.6582H131.468L131.225 21.1046H127.097V34.9496H122.793V21.1046H120.038V17.6582H122.793V15.2442C122.793 11.6567 124.454 9.88142 128.264 9.88142ZM173.99 19.1511C176.138 18.0441 178.498 17.4134 180.909 17.3017C183.766 17.3017 184.792 19.322 184.792 22.4119V34.9496H180.488V22.8798C180.488 21.9588 180.096 21.4983 179.114 21.4983C177.534 21.6736 176.007 22.1796 174.633 22.9838V34.9496H170.298V22.8798C170.298 21.9588 169.907 21.4983 168.925 21.4983C167.347 21.6869 165.824 22.192 164.443 22.9838V34.9496H160.139V17.6582H163.424L163.845 19.1437C165.991 18.0518 168.34 17.4243 170.741 17.3017C172.102 17.1724 173.4 17.9107 173.99 19.1511ZM92.9112 17.3017L93.3542 21.2829C91.7686 22.0027 90.2406 22.8445 88.7838 23.8008V34.9422H84.4792V17.6582H88.1119L88.3925 19.5745C89.7931 18.6208 91.3124 17.8567 92.9112 17.3017ZM103.44 17.3017L103.868 21.2829C102.288 22.0032 100.765 22.8451 99.3128 23.8008V34.9422H95.0081V17.6582H98.6409L98.9214 19.5745C100.322 18.6208 101.841 17.8567 103.44 17.3017ZM158.042 17.3017L158.47 21.2829C156.889 22.0032 155.366 22.8451 153.914 23.8008V34.9422H149.61V17.6582H153.242L153.523 19.5745C154.924 18.6207 156.443 17.8565 158.042 17.3017ZM113.969 28.4134H110.794C109.384 28.4134 108.993 28.807 108.993 30.1143C108.993 31.4215 109.384 31.8523 110.72 31.8523C111.861 31.8348 112.978 31.5283 113.969 30.961V28.4134ZM139.908 20.9932C137.611 20.9932 136.733 22.0256 136.733 23.9642V28.6139C136.733 30.5674 137.619 31.5849 139.908 31.5849C142.197 31.5849 143.083 30.5525 143.083 28.6139V23.9791C143.083 22.0256 142.204 20.9932 139.908 20.9932ZM75.1389 20.8521C73.0198 20.8521 72.2815 21.9885 72.2815 23.6226V24.499H77.7527V23.6226C77.7527 21.9885 77.258 20.8521 75.1389 20.8521Z" fill="#393939"/>
<g id="Group_2">
<path id="Vector_2" d="M27.0571 29.7949L39.1662 22.7684V8.69305L27.0571 15.7344V29.7949Z" fill="#393939"/>
<path id="Vector_3" d="M13.619 8.69307L25.7281 15.7344V29.7949L13.619 22.7609V8.69307ZM0.180908 14.91L12.29 21.9439V7.87604L0.180908 0.842102V14.91ZM13.619 38.3738L25.7281 45.4077V31.3398L13.619 24.3059" fill="#393939"/>
</g>
</g>
</svg>
