<svg width="160" height="38" viewBox="0 0 160 38" fill="none" xmlns="http://www.w3.org/2000/svg">
<g id="Group">
<path id="Vector" d="M0.810364 22.4261H6.34368C6.40132 23.5349 6.8048 24.3519 7.5541 24.877C8.36104 25.4022 9.45618 25.694 10.7819 25.694C11.7617 25.694 12.5687 25.519 13.318 25.1105C13.952 24.702 14.2978 24.2351 14.2978 23.5349C14.2978 22.5428 13.1451 21.7842 10.8971 21.3174C9.91729 21.1423 9.16798 20.9673 8.70687 20.8505C5.82494 20.1503 3.92286 19.275 2.943 18.2829C1.84786 17.2909 1.32911 16.0071 1.32911 14.3148C1.32911 12.214 2.13606 10.5217 3.6923 9.12115C5.30619 7.83734 7.43882 7.25379 10.0326 7.25379C12.8569 7.25379 15.1048 7.89569 16.7763 9.12115C18.3325 10.4633 19.1971 12.2723 19.3124 14.4315H15.8541C14.8166 14.4315 14.0673 13.9646 13.4909 13.0309C13.2603 12.7975 13.0298 12.6225 12.8569 12.389C12.2228 11.9222 11.3006 11.6304 10.2055 11.6304C9.11035 11.6304 8.3034 11.8055 7.78465 12.0973C7.32354 12.4474 7.03535 12.9142 7.03535 13.5561C7.03535 14.4315 8.41868 15.1901 11.243 15.7736C11.5888 15.8904 11.877 15.9487 12.1076 16.0071C12.3381 16.0654 12.5687 16.0654 12.7992 16.0654C15.5659 16.7657 17.468 17.5827 18.5631 18.5163C19.6006 19.5084 20.1193 20.7922 20.1193 22.4845C20.1193 24.877 19.2548 26.7444 17.5256 28.0866C15.9117 29.312 13.4909 29.8956 10.2055 29.8956C7.15063 29.8956 4.84508 29.2537 3.28883 28.0282C1.73258 26.7444 0.925641 24.9354 0.925641 22.5428V22.4261H0.810364ZM34.529 13.9646C33.7221 12.7975 32.627 12.214 31.186 12.214C29.6874 12.214 28.5346 12.7392 27.7277 13.8479C26.9207 14.9567 26.5173 16.4739 26.5173 18.3413V29.6622H20.9839V1.41827H23.7506C24.4999 1.41827 25.1339 1.71004 25.7103 2.23524C26.2291 2.76044 26.5173 3.4607 26.5173 4.21932V10.6967C27.4971 9.0628 28.8804 8.0124 30.6672 7.60392C32.454 7.19543 34.1256 7.25379 35.7971 7.95405C37.2957 8.59595 38.5638 9.64635 39.6012 11.0469C40.6387 12.4474 41.1575 14.4315 41.1575 16.9407V29.6622H35.7395V18.3413C35.7395 17.5243 35.6818 16.7657 35.5089 16.0654C35.336 15.4235 34.9902 14.7232 34.529 13.9646ZM42.3103 7.83734H45.2498C45.9992 7.83734 46.6332 8.12911 47.2096 8.65431C47.7283 9.17951 48.0165 9.87977 48.0165 10.6384V29.6622H42.3679V7.83734H42.3103ZM54.7602 34.7974C54.7602 35.556 54.472 36.1979 53.9533 36.7815C53.4346 37.3067 52.7429 37.5985 51.9936 37.5985H49.2269V17.1742C49.2269 13.3227 50.3221 10.7551 52.57 9.35457C54.7602 7.95405 57.1811 7.25379 59.7748 7.25379C61.1005 7.25379 62.4838 7.48721 63.8672 8.0124C65.2505 8.5376 66.3456 9.29622 67.1526 10.2883C68.7665 12.4474 69.5734 15.1317 69.5734 18.5163C69.5734 21.9593 68.7665 24.7603 67.1526 26.8611C65.5387 28.9619 63.4637 29.9539 60.9276 29.9539C59.6019 29.9539 58.3915 29.7205 57.354 29.1953C56.2589 28.6701 55.3943 27.7948 54.7602 26.6277V34.7974ZM64.0401 18.6914C64.0401 16.5323 63.6366 14.8983 62.8297 13.7896C62.0227 12.6225 60.87 12.0389 59.3713 12.0389C57.9304 12.0389 56.7776 12.6225 55.9707 13.7896C55.2214 14.84 54.8179 16.4739 54.8179 18.6914C54.8179 20.7922 55.2214 22.3094 56.0283 23.3598C56.8352 24.5269 57.988 25.1105 59.4866 25.1105C60.87 25.1105 62.0227 24.5269 62.8297 23.3598C63.6366 22.2511 64.0401 20.6755 64.0401 18.6914ZM76.0866 34.7974C76.0866 35.556 75.7984 36.1979 75.2796 36.7815C74.7609 37.3067 74.0692 37.5985 73.3199 37.5985H70.5533V17.1742C70.5533 13.3227 71.6484 10.7551 73.8963 9.35457C76.0866 7.95405 78.5074 7.25379 81.1012 7.25379C82.4268 7.25379 83.8102 7.48721 85.1935 8.0124C86.5768 8.5376 87.672 9.29622 88.4789 10.2883C90.0928 12.4474 90.8997 15.1317 90.8997 18.5163C90.8997 21.9593 90.0928 24.7603 88.4789 26.8611C86.865 28.9619 84.79 29.9539 82.2539 29.9539C80.9282 29.9539 79.7178 29.7205 78.6803 29.1953C77.5852 28.6701 76.7206 27.7948 76.0866 26.6277V34.7974ZM85.3088 18.6914C85.3088 16.5323 84.9053 14.8983 84.0984 13.7896C83.2914 12.6225 82.1387 12.0389 80.6401 12.0389C79.1991 12.0389 78.0463 12.6225 77.2394 13.7896C76.4901 14.84 76.0866 16.4739 76.0866 18.6914C76.0866 20.7922 76.4901 22.3094 77.297 23.3598C78.1039 24.5269 79.2567 25.1105 80.7553 25.1105C82.1387 25.1105 83.2914 24.5269 84.0984 23.3598C84.9053 22.2511 85.3088 20.6755 85.3088 18.6914ZM105.598 28.6118C104.445 29.1953 103.234 29.6038 101.966 29.7205C100.698 29.8372 99.6032 29.9539 98.6233 29.9539C96.6636 29.9539 94.9921 29.4288 93.4935 28.3784C92.0525 27.328 91.3032 25.519 91.3032 23.068C91.3032 20.7922 91.9372 19.0999 93.2629 18.1662C94.5886 17.1742 96.2602 16.5323 98.3352 16.1821C98.6233 16.1821 98.9115 16.1238 99.315 16.0654C99.7185 16.0071 100.122 15.8904 100.641 15.832C103.004 15.4819 104.214 14.7816 104.214 13.6729C104.214 12.8559 103.811 12.3307 102.946 12.0973C102.082 11.8638 101.332 11.7471 100.641 11.7471C99.8914 11.7471 99.1997 11.8638 98.6233 12.0973C98.047 12.3307 97.5858 12.7392 97.2976 13.3227H91.8796C92.1102 11.6304 92.8595 10.2299 94.1275 9.12115C95.5685 7.83734 97.6435 7.25379 100.353 7.25379C103.35 7.25379 105.655 7.77898 107.154 8.82938C108.71 9.93812 109.517 11.4554 109.517 13.4394V20.9089C109.517 23.1264 109.114 24.8187 108.364 26.0442C107.615 27.1529 106.693 28.0282 105.598 28.6118ZM104.33 18.5163C103.58 18.9248 102.543 19.275 101.159 19.5667L99.315 19.9752C98.3351 20.267 97.6435 20.6171 97.1824 21.0256C96.7789 21.6092 96.606 22.2511 96.606 22.8346C96.606 23.6516 96.8365 24.2935 97.3553 24.8187C97.8164 25.2855 98.5657 25.4606 99.4879 25.4606C100.987 25.4606 102.197 25.0521 103.062 24.1184C103.926 23.2431 104.387 22.0176 104.387 20.5004V18.5163H104.33ZM116.434 3.63576V10.2299C117.01 9.17951 117.875 8.36253 119.027 7.66227C120.007 7.13708 121.16 6.8453 122.601 6.8453C125.137 6.8453 127.212 7.89569 128.826 10.0548C130.44 12.214 131.247 14.9567 131.247 18.3413C131.247 21.7259 130.44 24.4686 128.826 26.6277C128.019 27.6781 126.924 28.4367 125.541 28.9036C124.157 29.3704 122.774 29.6038 121.448 29.6038C118.855 29.6038 116.434 28.9036 114.243 27.5614C112.053 26.2192 110.9 23.5932 110.9 19.6834V0.834717H113.667C114.416 0.834717 115.05 1.12649 115.627 1.65169C116.146 2.17689 116.434 2.87715 116.434 3.63576ZM125.656 18.0495C125.656 16.0654 125.252 14.5482 124.446 13.4394C123.639 12.2723 122.543 11.6888 121.102 11.6888C119.604 11.6888 118.451 12.214 117.644 13.3227C116.837 14.4898 116.434 16.0071 116.434 17.9911C116.434 20.267 116.837 21.9593 117.587 23.0097C118.393 24.1768 119.546 24.7603 120.987 24.7603C122.486 24.7603 123.639 24.1768 124.446 23.0097C125.252 21.9009 125.656 20.267 125.656 18.0495ZM132.227 1.41827H135.166C135.916 1.41827 136.55 1.65169 137.126 2.17689C137.645 2.70208 137.933 3.34399 137.933 4.10261V29.6622H132.284V1.41827H132.227ZM154.648 22.893H158.683C158.107 25.1688 156.954 26.9195 155.282 28.1449C153.611 29.4288 151.478 30.0123 148.942 30.0123C145.887 30.0123 143.466 29.0203 141.737 26.9778C140.008 24.9938 139.143 22.1927 139.143 18.5163C139.143 15.015 140.008 12.2723 141.679 10.2883C143.409 8.24582 145.829 7.25379 148.884 7.25379C152.112 7.25379 154.648 8.24582 156.435 10.2299C158.164 12.2723 159.029 15.0734 159.029 18.6914V19.275V19.6251C159.029 19.9169 159.029 20.0919 158.971 20.2086H144.965C145.023 21.9009 145.426 23.1847 146.175 24.0017C146.867 24.877 147.904 25.3439 149.345 25.3439C150.268 25.3439 151.075 25.1688 151.709 24.7603C151.882 24.702 151.997 24.5853 152.17 24.4686C152.285 24.3518 152.458 24.1768 152.631 24.0017C152.689 23.8267 152.861 23.5932 153.265 23.3598C153.495 23.0097 154.014 22.893 154.648 22.893ZM144.907 16.4739H153.15C153.034 15.015 152.688 13.9063 151.997 13.206C151.305 12.4474 150.268 12.0389 149 12.0389C147.789 12.0389 146.809 12.4474 146.06 13.206C145.368 13.9646 144.965 15.0734 144.907 16.4739Z" fill="#393939"/>
<path id="Vector_2" d="M42.3102 1.41827H45.2498C45.9991 1.41827 46.6332 1.71005 47.2095 2.23525C47.7283 2.76044 48.0165 3.4607 48.0165 4.21932V5.96998H42.3679V1.41827H42.3102Z" fill="#238189"/>
</g>
</svg>
