<svg width="185" height="40" viewBox="0 0 185 40" fill="none" xmlns="http://www.w3.org/2000/svg">
<g id="Group">
<path id="Vector" d="M45.8746 20.1572V30.079L30.4122 40.0031V30.079L45.8746 20.1572ZM30.4122 20.1572V30.079L14.9497 40.0031V30.079L30.4122 20.1572ZM14.9497 20.1572V30.079L-0.512695 40.0031V30.079L14.9497 20.1572ZM95.3865 18.5642C97.1366 21.7453 96.6283 25.7317 94.1399 28.3427C92.7689 29.7082 90.9395 30.4803 89.0299 30.4995C87.6505 30.5332 86.3075 30.043 85.2581 29.1228V37.1532H81.285V15.1599H85.1483V16.3158C86.2381 15.3792 87.6159 14.8697 89.0368 14.8779C91.6423 14.854 94.0625 16.2591 95.3865 18.5642ZM109.39 16.4309V15.1505H113.159L113.15 30.1542H109.419V28.8737C108.351 29.952 106.902 30.5388 105.405 30.4995C102.788 30.5208 100.365 29.0814 99.0782 26.7404C98.3714 25.5119 98.0133 24.1048 98.0444 22.6782C98.0444 19.6497 99.5654 17.1193 101.816 15.8365C102.919 15.1936 104.167 14.8598 105.435 14.8685C106.902 14.8307 108.325 15.3926 109.39 16.4309ZM153.576 14.8662C156.465 14.8662 158.625 15.9916 160.054 18.2729L157.012 20.2089C156.161 18.959 155.036 18.3293 153.606 18.3293C151.296 18.3293 149.745 20.1736 149.745 22.7345C149.745 25.2955 151.234 26.9824 153.576 26.9824C154.995 27.0115 156.336 26.3229 157.165 25.1404L160.084 27.1234C158.686 29.1862 156.314 30.4667 153.606 30.4667C150.747 30.4667 148.224 29.0922 146.824 26.7075C145.779 24.8897 145.489 22.7161 146.022 20.6767C146.554 18.6373 147.863 16.9039 149.654 15.8671C150.859 15.2006 152.208 14.8564 153.576 14.8662ZM176.502 14.8409L176.679 14.8427C181.089 14.8427 184.099 18.0309 184.099 22.9977C184.102 23.1543 184.097 23.3109 184.084 23.4669L184.069 23.6226H172.847C173.152 25.8077 174.62 26.9636 176.679 26.9636C178.049 26.9956 179.36 26.3977 180.256 25.3375L180.338 25.2367L183.127 27.121L183.04 27.2449C181.577 29.291 179.302 30.4314 176.679 30.4314C174.398 30.4314 172.36 29.5621 171.052 28.1524C169.688 26.6789 168.936 24.7182 168.954 22.6852C168.954 19.7789 170.26 17.3143 172.635 15.9046C173.761 15.2392 175.03 14.8752 176.325 14.8432L176.502 14.8409ZM63.1006 14.8826C65.1089 14.8826 66.5682 15.571 67.4191 16.9455C69.0309 15.5702 70.7952 14.8826 72.712 14.8826C76.1499 14.8779 78.0049 16.9478 78.0049 20.7516V30.1495H74.0501V21.0641C74.0501 19.2221 73.1992 18.3152 71.5569 18.3152C70.337 18.3152 69.2696 18.8462 68.3546 19.9081V30.1542H64.409V21.0641C64.409 19.2221 63.5878 18.3152 61.9455 18.3152C60.6989 18.3152 59.6353 18.8767 58.7226 20.0021V30.1542H54.7381V15.1599H58.4482V16.5695C59.754 15.4562 61.4037 14.8581 63.1006 14.8826ZM125.012 14.8779V18.7522C124.655 18.6554 124.286 18.6134 123.917 18.6277C122.601 18.665 121.367 19.2927 120.54 20.3451V30.1542H116.558V15.1599H120.268V16.5343C121.453 15.3149 122.761 14.8779 125.012 14.8779ZM133.734 10.1625V15.1599H137.018V18.5337H133.734V30.1542H129.777V18.5337H126.709V15.1599H129.777V10.1625H133.734ZM143.336 15.1599V30.1542H139.352V15.1599H143.336ZM166.651 7.69325V30.1542H162.698V7.69325H166.651ZM105.972 18.3152C103.843 18.3152 102.02 20.0021 102.02 22.6876C102.02 25.373 103.813 27.0317 105.943 27.0317C107.191 27.0762 108.394 26.5495 109.227 25.5939V19.7836C108.398 18.8364 107.212 18.3014 105.972 18.3152ZM88.5473 18.3152C87.2681 18.2964 86.0454 18.8556 85.2032 19.8447V25.5633C86.0133 26.506 87.1814 27.0416 88.4055 27.0317C90.6425 27.0317 92.4358 25.3754 92.4358 22.6265C92.4358 19.9716 90.6059 18.3152 88.5473 18.3152ZM176.777 18.186C174.901 18.186 173.608 19.1132 173.043 20.8245L173.007 20.9372H180.274C179.798 19.1344 178.681 18.2273 176.894 18.1896L176.777 18.1883V18.186ZM30.4122 0.306519V10.2307L14.9497 20.1548V10.2307L30.4122 0.306519ZM45.8746 0.306519V10.2307L30.4122 20.1548V10.2307L45.8746 0.306519ZM14.9497 0.306519V10.2307L-0.512695 20.1548V10.2307L14.9497 0.306519ZM143.428 9.03714V13.1605H139.26V9.03714H143.428Z" fill="#393939"/>
</g>
</svg>
