<svg width="185" height="38" viewBox="0 0 185 38" fill="none" xmlns="http://www.w3.org/2000/svg">
<g id="Group">
<path id="Vector" d="M94.4443 23.1576C94.4443 25.2122 93.7595 26.9555 92.3897 28.3253C90.5842 30.1308 87.6579 31.127 84.1091 31.0648C81.5564 31.0025 79.0037 30.3799 77.5717 29.5082L78.5056 24.4029C80.0621 25.2745 82.7393 26.1462 84.7317 26.1462C86.4127 26.1462 87.4711 25.399 87.4711 24.1538C87.4711 23.0331 86.6617 22.286 84.6694 21.2898C81.4941 19.7333 79.9376 17.741 79.9376 15.3751C79.9376 10.7678 83.9223 7.59247 89.837 7.59247C92.9501 7.59247 95.0047 8.3396 96.1254 9.08672L95.1915 14.1298C94.3198 13.445 92.0162 12.5111 89.5257 12.5111C87.7824 12.5111 86.6618 13.2582 86.6618 14.4411C86.6618 15.3128 87.5334 16.0599 89.339 16.9938C91.7671 18.239 94.4443 20.0446 94.4443 23.1576ZM184.909 27.8895C185.034 26.3329 183.913 25.0877 182.356 25.0877C180.8 25.0877 179.43 26.3329 179.306 27.8895C179.181 29.3215 180.177 30.6912 181.858 30.6912C183.415 30.6912 184.785 29.446 184.909 27.8895ZM184.536 27.8895C184.411 29.1969 183.228 30.3176 181.858 30.3176C180.551 30.3176 179.617 29.2592 179.742 27.9517C179.866 26.6442 181.049 25.5236 182.419 25.5236C183.664 25.5236 184.598 26.582 184.536 27.8895ZM182.605 28.263L183.041 29.5705H182.605L182.17 28.3253H181.547L181.298 29.5705H180.862L181.485 26.2707H182.543C183.041 26.2707 183.415 26.6442 183.415 27.0801C183.477 27.5159 183.166 28.0762 182.605 28.263ZM182.605 26.6442H181.858L181.609 27.8895H182.294C182.668 27.8895 182.979 27.5782 183.041 27.2046C183.104 26.9555 182.917 26.6442 182.605 26.6442ZM170.465 25.8971C173.266 25.8971 175.695 25.2122 178.31 23.718L177.251 29.3215C174.076 30.9402 170.34 31.127 168.908 31.127C162.682 31.127 159.195 27.7027 159.195 21.6634C159.195 18.1768 160.503 14.6902 162.682 12.1375C165.048 9.33577 168.597 7.71699 172.27 7.71699C176.94 7.71699 180.115 10.4565 180.115 14.5034C180.115 16.3712 179.492 17.9277 178.31 19.1107C176.068 21.2898 170.527 22.535 165.546 21.5389C165.235 24.2783 167.352 25.8971 170.465 25.8971ZM166.169 17.1184C170.091 17.1806 172.27 16.7448 173.266 15.8109C174.325 14.7524 173.951 12.5733 171.399 12.5733C168.535 12.5733 166.667 14.9392 166.169 17.1184ZM140.019 18.0523L137.591 30.6289H131.24L132.05 26.2707C131.178 28.9479 128.999 31.127 125.326 31.127C120.905 31.127 118.913 27.2046 118.913 23.2822C118.913 18.7994 120.656 14.3789 123.582 11.4526C126.073 8.9622 129.248 7.65473 132.797 7.65473C139.085 7.71699 141.14 11.9507 140.019 18.0523ZM133.855 15.1883C133.793 13.6318 132.921 12.7601 131.489 12.7601C128.376 12.7601 125.637 18.1768 125.637 21.9124C125.637 24.2783 126.509 25.7103 128.003 25.7103C130.431 25.7103 132.548 23.1576 133.233 19.4843C133.544 18.239 133.918 16.1844 133.855 15.1883ZM37.6003 18.0523L35.1721 30.6289H28.8216L29.6309 26.2707C28.7593 28.9479 26.5802 31.127 22.9068 31.127C18.4863 31.127 16.4939 27.2046 16.4939 23.2822C16.4939 18.7994 18.2372 14.3789 21.1635 11.4526C23.6539 8.9622 26.8292 7.65473 30.3781 7.65473C36.6664 7.71699 38.7833 11.9507 37.6003 18.0523ZM31.4988 15.1883C31.4365 13.6318 30.5649 12.7601 29.1329 12.7601C26.0198 12.7601 23.2804 18.1768 23.2804 21.9124C23.2804 24.2783 24.152 25.7103 25.6463 25.7103C28.0744 25.7103 30.1913 23.1576 30.8762 19.4843C31.1252 18.239 31.4988 16.1844 31.4988 15.1883ZM118.477 16.2467C118.477 21.7256 115.862 27.3291 111.13 29.8195C109.387 30.7535 107.706 31.127 106.274 31.127C103.908 31.127 102.6 30.2554 101.853 28.8856L100.172 37.8512H93.5104L99.1762 8.09055H105.029L104.344 11.7017C106.025 9.27351 108.453 7.65473 111.255 7.65473C115.613 7.65473 118.477 11.0168 118.477 16.2467ZM111.566 16.7448C111.566 15.6864 111.317 13.1337 108.889 13.1337C106.398 13.1337 104.282 15.9354 103.472 20.2314C103.161 21.7256 102.414 26.0839 105.464 26.0839C108.951 26.0839 111.566 21.103 111.566 16.7448ZM9.583 13.0714L10.5169 8.09055H4.6644L0.306152 31.0648H6.96805L8.77361 21.6011C9.83204 15.9977 13.0073 13.7563 17.6146 14.5034L18.9221 7.65473C14.9374 7.2189 11.2018 9.46029 9.583 13.0714ZM63.0649 30.6289L65.3686 18.5504L70.1004 30.6289H77.2604L72.3418 18.4881L81.2451 8.09055H73.9606L65.3686 18.3636L68.6684 0.930573H62.0688L56.403 30.6912H63.0649V30.6289ZM155.771 7.71699C147.428 7.71699 141.14 13.8185 141.14 21.9124C141.14 27.5159 144.876 31.127 150.603 31.127C153.094 31.127 155.46 30.6912 157.016 29.9441L158.075 24.3406C156.02 25.3368 154.401 25.7726 152.471 25.7726C150.354 25.7726 148.113 24.5896 148.113 21.1653C148.113 17.1806 150.915 13.0714 155.709 13.0714C157.141 13.0714 158.324 13.3827 159.382 13.9431L160.441 8.52638C159.195 8.02829 157.452 7.71699 155.771 7.71699ZM53.3523 7.71699C45.0093 7.71699 38.721 13.8185 38.721 21.9124C38.721 27.5159 42.4566 31.127 48.1846 31.127C50.6751 31.127 53.041 30.6912 54.5975 29.9441L55.6559 24.3406C53.6013 25.3368 51.9825 25.7726 50.0525 25.7726C47.9356 25.7726 45.6942 24.5896 45.6942 21.1653C45.6942 17.1806 48.4959 13.0714 53.29 13.0714C54.722 13.0714 55.905 13.3827 56.9634 13.9431L58.0218 8.52638C56.7766 8.02829 55.0333 7.71699 53.3523 7.71699Z" fill="#393939"/>
</g>
</svg>
