<svg width="185" height="41" viewBox="0 0 185 41" fill="none" xmlns="http://www.w3.org/2000/svg">
<g id="Group">
<path id="Vector" d="M19.2749 3.45161C19.6467 3.76417 19.706 4.33298 19.4073 4.72207C19.1086 5.11117 18.5651 5.17322 18.1933 4.86066C15.9424 2.9683 14.0674 2.34352 12.9109 2.96134C11.5651 3.67963 11.0431 5.99064 11.3148 9.21556L11.3557 9.6509C11.3785 9.87122 11.4048 10.0955 11.4347 10.3234L11.499 10.7843C11.5789 11.3232 11.6776 11.8814 11.7949 12.4563C13.4159 12.1935 15.1606 12.0216 16.9928 11.95C17.7875 10.8814 18.5956 9.87836 19.4072 8.9496L19.8139 8.49072C20.8312 7.35924 21.8515 6.34652 22.8555 5.46993L23.2562 5.1266C26.9203 2.04665 30.3306 0.827961 32.5361 2.32651C34.4573 3.63091 34.9722 6.58578 34.2587 10.5455C34.1703 11.036 33.7188 11.3586 33.2501 11.2661C32.7815 11.1736 32.4733 10.701 32.5616 10.2106C33.1592 6.8944 32.7658 4.63684 31.5959 3.84257C30.0755 2.8095 27.2502 3.99879 24.0644 6.77621L23.709 7.09132C23.5306 7.2521 23.3512 7.41772 23.171 7.58806L22.8094 7.935C22.4468 8.28816 22.0813 8.65992 21.7141 9.0494L21.3465 9.44476C21.2851 9.51162 21.2237 9.57897 21.1623 9.6468L20.7936 10.0595L20.4244 10.4836L20.0552 10.9187C19.9321 11.0656 19.8091 11.2144 19.6862 11.3649L19.3176 11.8217L19.2457 11.9128C20.1048 11.9176 20.9789 11.9436 21.8646 11.9918L22.2084 12.0116L22.8917 12.0575C23.4586 12.0991 24.0193 12.1492 24.5727 12.2076L25.2333 12.2816C25.3428 12.2945 25.452 12.3078 25.5609 12.3214L26.2105 12.407C26.7487 12.4814 27.2787 12.5637 27.7998 12.6536L28.4208 12.765L29.0328 12.8836L29.6355 13.0092C31.6286 13.4393 33.461 13.9839 35.0759 14.6222L35.5538 14.8165C39.7949 16.5901 42.4085 19.0314 42.2744 21.73C42.1632 23.9608 40.2525 25.8023 37.0498 27.122C36.6061 27.3048 36.1047 27.0766 35.93 26.6122C35.7553 26.1478 35.9734 25.6231 36.4172 25.4403C39.0581 24.352 40.4828 22.979 40.5497 21.6359C40.6352 19.9165 38.6695 18.1383 35.3974 16.704L34.9903 16.5301C34.7146 16.4153 34.4304 16.303 34.138 16.1933L33.6936 16.0307C33.5434 15.9771 33.3913 15.9243 33.2372 15.8722L32.7694 15.7179L32.2902 15.5681C32.2095 15.5435 32.1283 15.5191 32.0466 15.4949L31.5512 15.352C31.4677 15.3286 31.3839 15.3054 31.2995 15.2824L30.7886 15.1468C30.2725 15.0138 29.7414 14.8884 29.1967 14.7713L28.6475 14.657C28.5552 14.6385 28.4625 14.6201 28.3695 14.602L27.8072 14.4965L27.2365 14.3968C27.1407 14.3808 27.0446 14.3649 26.9481 14.3493L26.3655 14.259C26.17 14.23 25.9732 14.202 25.7753 14.1751L25.1778 14.0977L24.5733 14.0271C24.2694 13.9934 23.9629 13.9624 23.6541 13.9341L23.0335 13.8809C22.8257 13.8644 22.6168 13.8491 22.407 13.8351L21.7749 13.7967L21.1423 13.7663L20.5146 13.7438C19.7853 13.7222 19.0664 13.7168 18.3604 13.7266L17.8668 13.7361L17.673 14.0056C17.5524 14.1748 17.4321 14.3457 17.3123 14.5181L16.9539 15.0402C16.5373 15.6547 16.1262 16.2882 15.7225 16.9393C15.6071 17.1253 15.4933 17.3113 15.381 17.4973L15.0485 18.0549C14.6944 18.6569 14.3562 19.2575 14.0343 19.8549C14.0643 19.9301 14.0943 20.0059 14.1245 20.0818L14.3592 20.662C14.3991 20.7589 14.4393 20.856 14.48 20.9532L14.7283 21.5377L14.9856 22.1247L15.252 22.7137L15.5273 23.3045L15.8116 23.8965L16.1027 24.4851L16.3979 25.0653L16.6971 25.6368C16.7473 25.7314 16.7976 25.8255 16.8481 25.9193L17.1527 26.4775C17.2548 26.662 17.3575 26.845 17.4607 27.0265L17.7716 27.566C17.8757 27.7443 17.9803 27.921 18.0853 28.096L18.4015 28.6161L18.7199 29.1261C18.9861 29.5468 19.2543 29.9568 19.5239 30.3555L19.8479 30.8284C20.0644 31.14 20.2815 31.4443 20.4989 31.7408L20.8252 32.1798L21.1518 32.6071C21.2062 32.6773 21.2606 32.747 21.315 32.8162L21.6414 33.2254L21.9673 33.6223C22.2929 34.0129 22.6174 34.3848 22.9397 34.7368L23.2611 35.0821L23.5808 35.4141C23.7401 35.5766 23.8987 35.7341 24.0563 35.8863L24.3704 36.1837C24.5267 36.3288 24.6821 36.4686 24.8362 36.603L25.1429 36.8644C27.2276 38.6005 29.0749 39.3016 30.3013 38.6469C31.453 38.0323 32.0026 36.2381 31.962 33.6936L31.9515 33.3063C31.9465 33.1754 31.9401 33.0427 31.9322 32.9081L31.904 32.4993C31.8931 32.3613 31.8808 32.2216 31.867 32.0802L31.8212 31.6512C31.8128 31.5789 31.8041 31.5061 31.795 31.433L31.7359 30.9896L31.6681 30.5371L31.5915 30.0757C31.524 29.6876 31.4474 29.2906 31.3616 28.8856L31.2544 28.3958L31.1383 27.8986C31.1183 27.8151 31.0978 27.7313 31.0771 27.6473L30.9479 27.1396L30.8101 26.6253C30.7864 26.5391 30.7623 26.4526 30.7379 26.3658L30.587 25.8423L30.4274 25.313C30.3454 25.0469 30.2602 24.7788 30.1717 24.5088L29.9904 23.9664L29.8005 23.4194C29.6709 23.0533 29.5356 22.6842 29.3946 22.3127L29.1786 21.7536L28.9541 21.1912C28.916 21.0972 28.8775 21.0031 28.8386 20.9088L28.6011 20.342L28.355 19.7725C28.3133 19.6774 28.2712 19.5822 28.2288 19.4869L27.9698 18.9143C27.9259 18.8187 27.8817 18.723 27.8371 18.6273C27.6281 18.1786 27.8062 17.6377 28.2349 17.419C28.6636 17.2003 29.1805 17.3867 29.3895 17.8353L29.6759 18.4594C29.7698 18.6672 29.8621 18.8746 29.9529 19.0817L30.2205 19.7019C30.4834 20.3209 30.732 20.9361 30.9662 21.5462L31.1955 22.1544C31.2329 22.2555 31.2699 22.3564 31.3065 22.4572L31.5212 23.0596C31.5562 23.1596 31.5907 23.2595 31.6249 23.3592L31.8249 23.955C31.9549 24.3506 32.0783 24.743 32.1951 25.1318L32.3652 25.7122C34.4015 32.8345 34.1402 38.6272 31.0859 40.257C28.6152 41.5758 25.1123 39.7441 21.5862 35.8809L21.2214 35.474C20.9782 35.198 20.7351 34.9126 20.4923 34.618L20.1285 34.1693C19.1593 32.9549 18.199 31.5976 17.2687 30.121L16.9213 29.5617C16.0565 28.1497 15.2204 26.6355 14.4305 25.0382L14.2732 24.7177C14.1687 24.5032 14.0658 24.289 13.9646 24.0749L13.6657 23.4334C13.4305 22.9205 13.2047 22.4091 12.9885 21.9001L12.8495 22.1896C12.8064 22.2799 12.7638 22.3701 12.7216 22.4601L12.4731 22.9985L12.2342 23.533L12.0049 24.0631C11.9674 24.1511 11.9304 24.2389 11.8938 24.3265L11.6791 24.8496C11.6441 24.9364 11.6095 25.023 11.5753 25.1093L11.3752 25.6245C11.3427 25.71 11.3106 25.7951 11.2789 25.8801L11.0936 26.3867C11.0635 26.4706 11.0338 26.5543 11.0046 26.6377L10.8342 27.1348L10.6737 27.6252C10.596 27.8687 10.5221 28.1095 10.4519 28.3474L10.3167 28.8195L10.1916 29.2835C10.1716 29.3601 10.1521 29.4364 10.1329 29.5124L10.0232 29.9638C9.93606 30.3363 9.85964 30.6996 9.79409 31.0527L9.72066 31.4715C9.23185 34.4372 9.55042 36.6244 10.7614 37.4469C11.9812 38.2751 14.2429 37.6451 17.0338 35.5365C17.4205 35.2443 17.9602 35.3355 18.2393 35.7402C18.5185 36.1448 18.4313 36.7097 18.0447 37.0019C14.737 39.5009 11.8132 40.3154 9.82141 38.9631C7.41495 37.3286 7.24579 33.007 8.84747 27.6307L9.01353 27.0896C9.12814 26.7266 9.25056 26.3592 9.38064 25.9878L9.58148 25.4278C9.8569 24.6773 10.1627 23.9119 10.4978 23.1356L10.7545 22.5513L11.0222 21.9633C11.3631 21.2267 11.7293 20.4822 12.1197 19.733C12.0681 19.5945 12.0167 19.4563 11.9661 19.3185L11.7427 18.6978C11.4517 17.8731 11.1883 17.0601 10.9531 16.2627L10.782 15.6676C10.6764 15.2904 10.5773 14.9169 10.4848 14.5477L10.1684 14.6162L9.69876 14.7243L9.24054 14.8377C9.16514 14.8571 9.09022 14.8766 9.0158 14.8964L8.57523 15.0176L8.14684 15.1439C8.00611 15.1868 7.86745 15.2305 7.73093 15.2751L7.32783 15.411C7.19564 15.4571 7.06563 15.504 6.93786 15.5516L6.56133 15.6967C3.9734 16.7278 2.39698 18.0809 2.32373 19.5547C2.25679 20.8978 3.53763 22.4184 6.05681 23.7873C6.48005 24.0173 6.645 24.5628 6.42524 25.0058C6.20547 25.4487 5.68422 25.6213 5.26097 25.3914C2.20587 23.7312 0.487882 21.6917 0.599078 19.4607C0.753659 16.3504 4.50508 13.9764 10.085 12.7777C8.95565 7.13041 9.53043 2.73672 12.126 1.35142C14.0445 0.32648 16.551 1.16167 19.2749 3.45161ZM132.515 6.68645C140.863 6.68645 146.337 13.6518 146.337 21.5233V21.6066C146.337 29.4786 140.784 36.5262 132.436 36.5262C124.087 36.5262 118.612 29.5614 118.612 21.6888V21.6066C118.612 13.7346 124.165 6.68645 132.515 6.68645ZM160.434 7.05731C160.868 7.05731 161.183 7.30494 161.458 7.67639L172.21 24.2443L182.962 7.67639C183.198 7.30494 183.553 7.05731 183.985 7.05731H184.183C184.733 7.05731 185.206 7.55257 185.206 8.12882V35.1243C185.206 35.7017 184.733 36.197 184.183 36.197C183.631 36.197 183.159 35.7017 183.159 35.1243V10.9731L173.037 26.3879C172.801 26.7594 172.525 26.9237 172.171 26.9237C171.816 26.9237 171.54 26.7594 171.305 26.3879L161.183 10.9731V35.1665C161.183 35.7428 160.75 36.197 160.199 36.197C159.647 36.197 159.214 35.7434 159.214 35.1665V8.12882C159.214 7.55257 159.686 7.05731 160.238 7.05731H160.434ZM109.083 7.18054C109.595 7.18054 110.029 7.63355 110.029 8.16989C110.029 8.70624 109.595 9.15925 109.083 9.15925H100.261V35.1255C100.261 35.7017 99.7888 36.197 99.2371 36.197C98.6865 36.197 98.2132 35.7017 98.2132 35.1255V9.15925H89.391C88.8796 9.15925 88.4462 8.70682 88.4462 8.16989C88.4462 7.63414 88.8791 7.18054 89.391 7.18054H109.083ZM68.5993 6.89242C69.308 6.89242 69.7022 7.30494 69.9769 7.92402L81.7132 34.548C81.8315 34.7957 81.8707 35.0017 81.8707 35.2082C81.8707 35.7434 81.4379 36.197 80.8856 36.197C80.4135 36.197 80.0591 35.8261 79.8623 35.3725L76.6331 27.9535H60.3675L57.1378 35.4142C56.941 35.9083 56.6264 36.197 56.1532 36.197C55.6412 36.197 55.2078 35.785 55.2078 35.2898C55.2084 35.1249 55.2482 34.8778 55.3665 34.6308L67.1414 7.92402C67.4173 7.30494 67.8109 6.89242 68.5202 6.89242H68.5993ZM132.436 8.6235C125.622 8.6235 120.739 14.3936 120.739 21.5233V21.6066C120.739 28.7369 125.701 34.5891 132.515 34.5891C139.327 34.5891 144.211 28.8191 144.211 21.6888V21.6066C144.211 14.4763 139.248 8.6235 132.436 8.6235ZM68.5197 9.32473L61.2338 26.0165H75.7663L68.5197 9.32473ZM24.007 20.2616C24.2936 21.6494 23.4508 23.0167 22.1247 23.3171C20.7987 23.617 19.4922 22.735 19.2051 21.3472C18.9191 19.9594 19.7613 18.5922 21.0874 18.2917C22.4135 17.9919 23.72 18.8738 24.007 20.2616ZM15.6471 13.8416L15.6101 13.8445C15.4511 13.856 15.293 13.8684 15.1358 13.8816L14.5741 13.9322L14.0207 13.9895C13.9292 13.9996 13.838 14.01 13.7472 14.0206L13.2069 14.0875C13.1176 14.0992 13.0287 14.1111 12.9402 14.1233L12.4137 14.1996L12.2047 14.2327L12.2786 14.5214C12.3942 14.961 12.5194 15.4078 12.6542 15.8608L12.8205 16.4074L12.9071 16.6828L13.0872 17.2377C13.1368 17.3875 13.1874 17.5379 13.239 17.6888C13.5123 17.2128 13.7952 16.7355 14.0872 16.2584L14.2737 15.9555C14.7233 15.2304 15.1818 14.5252 15.6471 13.8416Z" fill="#393939"/>
</g>
</svg>
