<svg width="185" height="39" viewBox="0 0 185 39" fill="none" xmlns="http://www.w3.org/2000/svg">
<g id="Group">
<path id="Vector" d="M38.608 27.2717L28.1915 38.6477H9.0251L19.3379 27.2717H38.608ZM72.8366 9.19795C79.8595 9.19795 82.2845 13.6533 82.4591 17.0671H76.3286C76.1928 15.6013 75.0677 14.2705 72.7977 14.2705C70.7414 14.2705 69.5774 15.2541 69.5774 16.5464C69.5774 20.4617 82.556 16.5464 82.556 26.1128C82.556 30.2981 78.967 33.5962 72.6231 33.5962C65.2511 33.5771 62.7484 29.8353 62.4381 25.4763H68.8789C68.9758 27.0385 70.1399 28.5045 72.7783 28.5045C75.2034 28.5045 76.445 27.6558 76.445 26.3635C76.445 22.4483 63.4275 26.1322 63.4275 16.8936C63.4275 12.6696 67.0553 9.19795 72.8366 9.19795ZM155.831 9.19795C163.125 9.19795 166.579 14.3091 167.025 18.2822H160.487C160.002 16.2764 158.12 14.8105 155.792 14.8105C152.397 14.8105 150.418 17.4722 150.418 21.3874C150.418 25.3028 152.397 27.9645 155.792 27.9645C158.12 27.9645 160.002 26.4985 160.487 24.4927H167.025C166.579 28.4466 163.125 33.5771 155.831 33.5771C149.021 33.5771 144.055 28.3308 144.055 21.3874C144.055 14.4441 149.021 9.19795 155.831 9.19795ZM106.244 9.17864C113.189 9.17864 117.884 14.4248 117.884 21.3295C117.884 22.3517 117.787 23.2004 117.787 23.2004H100.773C101.219 26.4021 103.276 28.138 106.457 28.138C108.378 28.138 110.221 27.2893 110.978 25.5921H117.38C115.983 30.3175 111.695 33.5577 106.283 33.5577C99.3373 33.5577 94.468 28.4852 94.468 21.3295C94.468 14.4248 99.2985 9.17864 106.244 9.17864ZM90.8788 4.299V9.71872H95.5543V14.8684H90.8788V33.037H84.5156V4.299H90.8788ZM133.075 9.19795C138.72 9.19795 141.708 12.9397 141.708 18.4944V33.037H135.344V19.1887C135.344 16.4692 134.18 14.5984 131.367 14.5984C128.283 14.5984 126.575 16.5657 126.575 19.6709V33.0177H120.212V9.7187H126.09V12.5732C127.157 10.5673 129.582 9.19795 133.075 9.19795ZM175.755 9.71868V33.037H169.391V9.71868H175.755ZM185.513 1.77234V33.0368H179.15V1.77234H185.513ZM50.8998 13.7891L40.4888 25.165H0.900513L11.3116 13.7891H50.8998ZM106.166 14.2705C103.276 14.2705 101.394 16.0063 100.851 18.668H111.501C111.055 16.0449 109.134 14.2705 106.166 14.2705ZM42.7747 0.306519L32.4062 11.6825H13.1919L23.5758 0.306519H42.7747ZM172.554 0.306519C174.785 0.306519 176.395 1.90736 176.395 4.12539C176.395 6.34341 174.785 7.90568 172.554 7.90568C170.342 7.90568 168.712 6.36271 168.712 4.12539C168.712 1.90736 170.323 0.306519 172.554 0.306519Z" fill="#393939"/>
</g>
</svg>
