<svg width="32" height="33" viewBox="0 0 32 33" fill="none" xmlns="http://www.w3.org/2000/svg">
<g id="Icon / Phone">
<path id="Vector" d="M22.6667 28.7802C20.4617 28.7782 18.2911 28.2332 16.3467 27.1935L15.7467 26.8602C11.601 24.6312 8.20225 21.2324 5.97333 17.0868L5.64 16.4868C4.57309 14.5314 4.00951 12.3411 4 10.1135V9.22014C3.99944 8.50942 4.28261 7.82787 4.78667 7.32681L7.04 5.07348C7.25884 4.85294 7.56775 4.74665 7.87595 4.78582C8.18415 4.825 8.45664 5.00521 8.61333 5.27348L11.6133 10.4201C11.9167 10.944 11.8291 11.6065 11.4 12.0335L8.88 14.5535C8.67072 14.7604 8.62196 15.0802 8.76 15.3402L9.22667 16.2202C10.9027 19.3247 13.4524 21.8698 16.56 23.5402L17.44 24.0202C17.7 24.1582 18.0197 24.1094 18.2267 23.9002L20.7467 21.3802C21.1736 20.9511 21.8361 20.8635 22.36 21.1668L27.5067 24.1668C27.7749 24.3235 27.9552 24.596 27.9943 24.9042C28.0335 25.2124 27.9272 25.5214 27.7067 25.7402L25.4533 27.9935C24.9523 28.4975 24.2707 28.7807 23.56 28.7802H22.6667Z" fill="#C4730A"/>
</g>
</svg>
