<svg width="32" height="33" viewBox="0 0 32 33" fill="none" xmlns="http://www.w3.org/2000/svg">
<g id="Icon / Pin">
<path id="Vector" d="M16.0002 3.4458C10.6749 3.4458 6.34253 7.7782 6.34253 13.1034C6.34253 19.7122 14.9851 29.4142 15.3531 29.8239C15.6987 30.2089 16.3022 30.2082 16.6473 29.8239C17.0151 29.4142 25.6578 19.7122 25.6578 13.1034C25.6577 7.7782 21.3254 3.4458 16.0002 3.4458ZM16.0002 17.9625C13.3209 17.9625 11.1412 15.7827 11.1412 13.1034C11.1412 10.4241 13.321 8.24444 16.0002 8.24444C18.6794 8.24444 20.8591 10.4242 20.8591 13.1035C20.8591 15.7827 18.6794 17.9625 16.0002 17.9625Z" fill="#C4730A"/>
</g>
</svg>
